<svg xmlns="http://www.w3.org/2000/svg" xmlns:xlink="http://www.w3.org/1999/xlink" version="1.1" width="766" height="490"><defs/><g transform=" scale(0.5) translate(-94,-236)"><rect x="798" y="858" width="4" height="4" fill="#000000" stroke="none" pointer-events="none"/><rect x="798" y="778" width="4" height="4" fill="#000000" stroke="none" pointer-events="none"/><rect x="918" y="918" width="4" height="4" fill="#000000" stroke="none" pointer-events="none"/><rect x="918" y="718" width="4" height="4" fill="#000000" stroke="none" pointer-events="none"/><rect x="1058" y="818" width="4" height="4" fill="#000000" stroke="none" pointer-events="none"/><path d="M 840.15 920 L 840.15 720 L 1020.15 820 Z" fill="#ffffff" stroke="#000000" stroke-width="4" stroke-miterlimit="10" pointer-events="none"/><path d="M 801.85 860 L 837.85 860" fill="none" stroke="#000000" stroke-width="4" stroke-linecap="square" stroke-miterlimit="10" pointer-events="none"/><path d="M 802.15 780 L 838.15 780" fill="none" stroke="#000000" stroke-width="4" stroke-linecap="square" stroke-miterlimit="10" pointer-events="none"/><path d="M 920.15 918 L 920.15 878" fill="none" stroke="#000000" stroke-width="4" stroke-linecap="square" stroke-miterlimit="10" pointer-events="none"/><g fill="#000000" font-family="Arial,Helvetica" font-size="20px"><text x="929.73" y="894.72">GND</text></g><path d="M 920.15 762 L 920.15 722" fill="none" stroke="#000000" stroke-width="4" stroke-linecap="square" stroke-miterlimit="10" pointer-events="none"/><g fill="#000000" font-family="Arial,Helvetica" font-size="20px"><text x="931.15" y="748">V+</text></g><path d="M 1020.15 820 L 1058.15 820" fill="none" stroke="#000000" stroke-width="4" stroke-linecap="square" stroke-miterlimit="10" pointer-events="none"/><path d="M 855.56 859.74 L 871.24 859.74" fill="none" stroke="#000000" stroke-width="4" stroke-linecap="square" stroke-miterlimit="10" pointer-events="none"/><path d="M 855.56 779.74 L 871.24 779.74" fill="none" stroke="#000000" stroke-width="4" stroke-linecap="square" stroke-miterlimit="10" pointer-events="none"/><path d="M 863.4 771.89 L 863.4 787.58" fill="none" stroke="#000000" stroke-width="4" stroke-linecap="square" stroke-miterlimit="10" pointer-events="none"/><rect x="800" y="680" width="102" height="26" fill-opacity="0" fill="#dae2f2" stroke="none" pointer-events="none"/><g fill="#000000" font-family="Arial,Helvetica" font-weight="bold" text-anchor="middle" font-size="24px"><text x="851" y="701">TLV2451C</text></g><rect x="258" y="778" width="4" height="4" fill="#000000" stroke="none" pointer-events="none"/><rect x="258" y="898" width="4" height="4" fill="#000000" stroke="none" pointer-events="none"/><path d="M 260 804 L 274 810 L 260 816" fill="none" stroke="#000000" stroke-width="4" stroke-linejoin="round" stroke-linecap="round" stroke-miterlimit="10" pointer-events="none"/><path d="M 260 816 L 246 822 L 260 828" fill="none" stroke="#000000" stroke-width="4" stroke-linejoin="round" stroke-linecap="round" stroke-miterlimit="10" pointer-events="none"/><path d="M 260 828 L 274 834 L 260 840" fill="none" stroke="#000000" stroke-width="4" stroke-linejoin="round" stroke-linecap="round" stroke-miterlimit="10" pointer-events="none"/><path d="M 260 840 L 246 846 L 260 852" fill="none" stroke="#000000" stroke-width="4" stroke-linejoin="round" stroke-linecap="round" stroke-miterlimit="10" pointer-events="none"/><path d="M 260 852 L 274 858 L 260 864" fill="none" stroke="#000000" stroke-width="4" stroke-linejoin="round" stroke-linecap="round" stroke-miterlimit="10" pointer-events="none"/><path d="M 260 864 L 246 870 L 260 876" fill="none" stroke="#000000" stroke-width="4" stroke-linejoin="round" stroke-linecap="round" stroke-miterlimit="10" pointer-events="none"/><path d="M 260 782 L 260 802" fill="#000000" stroke="#000000" stroke-width="4" stroke-linecap="square" stroke-miterlimit="10" pointer-events="none"/><path d="M 260 878 L 260 898" fill="#000000" stroke="#000000" stroke-width="4" stroke-linecap="square" stroke-miterlimit="10" pointer-events="none"/><rect x="212" y="780" width="28" height="26" fill-opacity="0" fill="#dae2f2" stroke="none" pointer-events="none"/><g fill="#000000" font-family="Arial,Helvetica" font-weight="bold" text-anchor="middle" font-size="24px"><text x="226" y="801">R1</text></g><rect x="198" y="806" width="48" height="28" fill-opacity="0" fill="#dae2f2" stroke="none" pointer-events="none"/><g fill="#000000" font-family="Arial,Helvetica" font-weight="bold" text-anchor="middle" font-size="24px"><text x="222" y="828">10M</text></g><rect x="368" y="728" width="4" height="4" fill="#000000" stroke="none" transform="rotate(90,370,780)" pointer-events="none"/><rect x="368" y="828" width="4" height="4" fill="#000000" stroke="none" transform="rotate(90,370,780)" pointer-events="none"/><path d="M 348 772 C 392 772 392 772 392 772" fill="none" stroke="#000000" stroke-width="4" stroke-linecap="round" stroke-miterlimit="10" transform="rotate(90,370,780)" pointer-events="none"/><path d="M 348 788 C 392 788 392 788 392 788" fill="none" stroke="#000000" stroke-width="4" stroke-linecap="round" stroke-miterlimit="10" transform="rotate(90,370,780)" pointer-events="none"/><path d="M 370 732 L 370 770" fill="#000000" stroke="#000000" stroke-width="4" stroke-linecap="square" stroke-miterlimit="10" transform="rotate(90,370,780)" pointer-events="none"/><path d="M 370 790 L 370 828" fill="#000000" stroke="#000000" stroke-width="4" stroke-linecap="square" stroke-miterlimit="10" transform="rotate(90,370,780)" pointer-events="none"/><rect x="392" y="714" width="28" height="26" fill-opacity="0" fill="#dae2f2" stroke="none" pointer-events="none"/><g fill="#000000" font-family="Arial,Helvetica" font-weight="bold" text-anchor="middle" font-size="24px"><text x="406" y="735">C1</text></g><rect x="364" y="688" width="62" height="28" fill-opacity="0" fill="#dae2f2" stroke="none" pointer-events="none"/><g fill="#000000" font-family="Arial,Helvetica" font-weight="bold" text-anchor="middle" font-size="24px"><text x="395" y="710">0.1uF</text></g><rect x="658" y="718" width="4" height="4" fill="#000000" stroke="none" transform="rotate(90,660,780)" pointer-events="none"/><rect x="658" y="838" width="4" height="4" fill="#000000" stroke="none" transform="rotate(90,660,780)" pointer-events="none"/><path d="M 660 744 L 674 750 L 660 756" fill="none" stroke="#000000" stroke-width="4" stroke-linejoin="round" stroke-linecap="round" stroke-miterlimit="10" transform="rotate(90,660,780)" pointer-events="none"/><path d="M 660 756 L 646 762 L 660 768" fill="none" stroke="#000000" stroke-width="4" stroke-linejoin="round" stroke-linecap="round" stroke-miterlimit="10" transform="rotate(90,660,780)" pointer-events="none"/><path d="M 660 768 L 674 774 L 660 780" fill="none" stroke="#000000" stroke-width="4" stroke-linejoin="round" stroke-linecap="round" stroke-miterlimit="10" transform="rotate(90,660,780)" pointer-events="none"/><path d="M 660 780 L 646 786 L 660 792" fill="none" stroke="#000000" stroke-width="4" stroke-linejoin="round" stroke-linecap="round" stroke-miterlimit="10" transform="rotate(90,660,780)" pointer-events="none"/><path d="M 660 792 L 674 798 L 660 804" fill="none" stroke="#000000" stroke-width="4" stroke-linejoin="round" stroke-linecap="round" stroke-miterlimit="10" transform="rotate(90,660,780)" pointer-events="none"/><path d="M 660 804 L 646 810 L 660 816" fill="none" stroke="#000000" stroke-width="4" stroke-linejoin="round" stroke-linecap="round" stroke-miterlimit="10" transform="rotate(90,660,780)" pointer-events="none"/><path d="M 660 722 L 660 742" fill="#000000" stroke="#000000" stroke-width="4" stroke-linecap="square" stroke-miterlimit="10" transform="rotate(90,660,780)" pointer-events="none"/><path d="M 660 818 L 660 838" fill="#000000" stroke="#000000" stroke-width="4" stroke-linecap="square" stroke-miterlimit="10" transform="rotate(90,660,780)" pointer-events="none"/><rect x="692" y="734" width="28" height="26" fill-opacity="0" fill="#dae2f2" stroke="none" pointer-events="none"/><g fill="#000000" font-family="Arial,Helvetica" font-weight="bold" text-anchor="middle" font-size="24px"><text x="706" y="755">R2</text></g><rect x="598" y="578" width="4" height="4" fill="#000000" stroke="none" transform="rotate(180,600,640)" pointer-events="none"/><rect x="598" y="698" width="4" height="4" fill="#000000" stroke="none" transform="rotate(180,600,640)" pointer-events="none"/><path d="M 600 604 L 614 610 L 600 616" fill="none" stroke="#000000" stroke-width="4" stroke-linejoin="round" stroke-linecap="round" stroke-miterlimit="10" transform="rotate(180,600,640)" pointer-events="none"/><path d="M 600 616 L 586 622 L 600 628" fill="none" stroke="#000000" stroke-width="4" stroke-linejoin="round" stroke-linecap="round" stroke-miterlimit="10" transform="rotate(180,600,640)" pointer-events="none"/><path d="M 600 628 L 614 634 L 600 640" fill="none" stroke="#000000" stroke-width="4" stroke-linejoin="round" stroke-linecap="round" stroke-miterlimit="10" transform="rotate(180,600,640)" pointer-events="none"/><path d="M 600 640 L 586 646 L 600 652" fill="none" stroke="#000000" stroke-width="4" stroke-linejoin="round" stroke-linecap="round" stroke-miterlimit="10" transform="rotate(180,600,640)" pointer-events="none"/><path d="M 600 652 L 614 658 L 600 664" fill="none" stroke="#000000" stroke-width="4" stroke-linejoin="round" stroke-linecap="round" stroke-miterlimit="10" transform="rotate(180,600,640)" pointer-events="none"/><path d="M 600 664 L 586 670 L 600 676" fill="none" stroke="#000000" stroke-width="4" stroke-linejoin="round" stroke-linecap="round" stroke-miterlimit="10" transform="rotate(180,600,640)" pointer-events="none"/><path d="M 600 582 L 600 602" fill="#000000" stroke="#000000" stroke-width="4" stroke-linecap="square" stroke-miterlimit="10" transform="rotate(180,600,640)" pointer-events="none"/><path d="M 600 678 L 600 698" fill="#000000" stroke="#000000" stroke-width="4" stroke-linecap="square" stroke-miterlimit="10" transform="rotate(180,600,640)" pointer-events="none"/><rect x="620" y="674" width="28" height="26" fill-opacity="0" fill="#dae2f2" stroke="none" pointer-events="none"/><g fill="#000000" font-family="Arial,Helvetica" font-weight="bold" text-anchor="middle" font-size="24px"><text x="634" y="695">R3</text></g><rect x="620" y="700" width="42" height="26" fill-opacity="0" fill="#dae2f2" stroke="none" pointer-events="none"/><g fill="#000000" font-family="Arial,Helvetica" font-weight="bold" text-anchor="middle" font-size="24px"><text x="641" y="721">10M</text></g><path d="M 720 780 L 800 780" fill="none" stroke="#000000" stroke-width="4" stroke-miterlimit="10" pointer-events="none"/><path d="M 600 780 L 600 700" fill="none" stroke="#000000" stroke-width="4" stroke-miterlimit="10" pointer-events="none"/><rect x="478" y="518" width="4" height="4" fill="#000000" stroke="none" transform="rotate(90,480,580)" pointer-events="none"/><rect x="478" y="638" width="4" height="4" fill="#000000" stroke="none" transform="rotate(90,480,580)" pointer-events="none"/><path d="M 480 544 L 494 550 L 480 556" fill="none" stroke="#000000" stroke-width="4" stroke-linejoin="round" stroke-linecap="round" stroke-miterlimit="10" transform="rotate(90,480,580)" pointer-events="none"/><path d="M 480 556 L 466 562 L 480 568" fill="none" stroke="#000000" stroke-width="4" stroke-linejoin="round" stroke-linecap="round" stroke-miterlimit="10" transform="rotate(90,480,580)" pointer-events="none"/><path d="M 480 568 L 494 574 L 480 580" fill="none" stroke="#000000" stroke-width="4" stroke-linejoin="round" stroke-linecap="round" stroke-miterlimit="10" transform="rotate(90,480,580)" pointer-events="none"/><path d="M 480 580 L 466 586 L 480 592" fill="none" stroke="#000000" stroke-width="4" stroke-linejoin="round" stroke-linecap="round" stroke-miterlimit="10" transform="rotate(90,480,580)" pointer-events="none"/><path d="M 480 592 L 494 598 L 480 604" fill="none" stroke="#000000" stroke-width="4" stroke-linejoin="round" stroke-linecap="round" stroke-miterlimit="10" transform="rotate(90,480,580)" pointer-events="none"/><path d="M 480 604 L 466 610 L 480 616" fill="none" stroke="#000000" stroke-width="4" stroke-linejoin="round" stroke-linecap="round" stroke-miterlimit="10" transform="rotate(90,480,580)" pointer-events="none"/><path d="M 480 522 L 480 542" fill="#000000" stroke="#000000" stroke-width="4" stroke-linecap="square" stroke-miterlimit="10" transform="rotate(90,480,580)" pointer-events="none"/><path d="M 480 618 L 480 638" fill="#000000" stroke="#000000" stroke-width="4" stroke-linecap="square" stroke-miterlimit="10" transform="rotate(90,480,580)" pointer-events="none"/><rect x="512" y="534" width="28" height="26" fill-opacity="0" fill="#dae2f2" stroke="none" pointer-events="none"/><g fill="#000000" font-family="Arial,Helvetica" font-weight="bold" text-anchor="middle" font-size="24px"><text x="526" y="555">R4</text></g><rect x="492" y="508" width="48" height="26" fill-opacity="0" fill="#dae2f2" stroke="none" pointer-events="none"/><g fill="#000000" font-family="Arial,Helvetica" font-weight="bold" text-anchor="middle" font-size="24px"><text x="516" y="529">100k</text></g><rect x="738" y="518" width="4" height="4" fill="#000000" stroke="none" transform="rotate(90,740,580)" pointer-events="none"/><rect x="738" y="638" width="4" height="4" fill="#000000" stroke="none" transform="rotate(90,740,580)" pointer-events="none"/><path d="M 740 544 L 754 550 L 740 556" fill="none" stroke="#000000" stroke-width="4" stroke-linejoin="round" stroke-linecap="round" stroke-miterlimit="10" transform="rotate(90,740,580)" pointer-events="none"/><path d="M 740 556 L 726 562 L 740 568" fill="none" stroke="#000000" stroke-width="4" stroke-linejoin="round" stroke-linecap="round" stroke-miterlimit="10" transform="rotate(90,740,580)" pointer-events="none"/><path d="M 740 568 L 754 574 L 740 580" fill="none" stroke="#000000" stroke-width="4" stroke-linejoin="round" stroke-linecap="round" stroke-miterlimit="10" transform="rotate(90,740,580)" pointer-events="none"/><path d="M 740 580 L 726 586 L 740 592" fill="none" stroke="#000000" stroke-width="4" stroke-linejoin="round" stroke-linecap="round" stroke-miterlimit="10" transform="rotate(90,740,580)" pointer-events="none"/><path d="M 740 592 L 754 598 L 740 604" fill="none" stroke="#000000" stroke-width="4" stroke-linejoin="round" stroke-linecap="round" stroke-miterlimit="10" transform="rotate(90,740,580)" pointer-events="none"/><path d="M 740 604 L 726 610 L 740 616" fill="none" stroke="#000000" stroke-width="4" stroke-linejoin="round" stroke-linecap="round" stroke-miterlimit="10" transform="rotate(90,740,580)" pointer-events="none"/><path d="M 740 522 L 740 542" fill="#000000" stroke="#000000" stroke-width="4" stroke-linecap="square" stroke-miterlimit="10" transform="rotate(90,740,580)" pointer-events="none"/><path d="M 740 618 L 740 638" fill="#000000" stroke="#000000" stroke-width="4" stroke-linecap="square" stroke-miterlimit="10" transform="rotate(90,740,580)" pointer-events="none"/><rect x="772" y="534" width="28" height="26" fill-opacity="0" fill="#dae2f2" stroke="none" pointer-events="none"/><g fill="#000000" font-family="Arial,Helvetica" font-weight="bold" text-anchor="middle" font-size="24px"><text x="786" y="555">R5</text></g><rect x="752" y="508" width="54" height="28" fill-opacity="0" fill="#dae2f2" stroke="none" pointer-events="none"/><g fill="#000000" font-family="Arial,Helvetica" font-weight="bold" text-anchor="middle" font-size="24px"><text x="779" y="530">100k</text></g><rect x="598" y="398" width="4" height="4" fill="#000000" stroke="none" transform="rotate(180,600,450)" pointer-events="none"/><rect x="598" y="498" width="4" height="4" fill="#000000" stroke="none" transform="rotate(180,600,450)" pointer-events="none"/><path d="M 578 442 C 622 442 622 442 622 442" fill="none" stroke="#000000" stroke-width="4" stroke-linecap="round" stroke-miterlimit="10" transform="rotate(180,600,450)" pointer-events="none"/><path d="M 578 458 C 622 458 622 458 622 458" fill="none" stroke="#000000" stroke-width="4" stroke-linecap="round" stroke-miterlimit="10" transform="rotate(180,600,450)" pointer-events="none"/><path d="M 600 402 L 600 440" fill="#000000" stroke="#000000" stroke-width="4" stroke-linecap="square" stroke-miterlimit="10" transform="rotate(180,600,450)" pointer-events="none"/><path d="M 600 460 L 600 498" fill="#000000" stroke="#000000" stroke-width="4" stroke-linecap="square" stroke-miterlimit="10" transform="rotate(180,600,450)" pointer-events="none"/><rect x="640" y="474" width="28" height="26" fill-opacity="0" fill="#dae2f2" stroke="none" pointer-events="none"/><g fill="#000000" font-family="Arial,Helvetica" font-weight="bold" text-anchor="middle" font-size="24px"><text x="654" y="495">C2</text></g><rect x="640" y="500" width="56" height="26" fill-opacity="0" fill="#dae2f2" stroke="none" pointer-events="none"/><g fill="#000000" font-family="Arial,Helvetica" font-weight="bold" text-anchor="middle" font-size="24px"><text x="668" y="521">0.1uF</text></g><path d="M 540 580 L 680 580" fill="none" stroke="#000000" stroke-width="4" stroke-miterlimit="10" pointer-events="none"/><path d="M 600 576 L 600 500" fill="none" stroke="#000000" stroke-width="4" stroke-miterlimit="10" pointer-events="none"/><ellipse cx="600" cy="580" rx="4" ry="4" fill="#000000" stroke="#000000" stroke-width="4" pointer-events="none"/><rect x="598" y="318" width="4" height="4" fill="#000000" stroke="none" transform="translate(0,360)scale(1,-1)translate(0,-360)" pointer-events="none"/><path d="M 578 362 C 622.04 362 622.04 362 622.04 362" fill="none" stroke="#000000" stroke-width="4" stroke-linecap="round" stroke-miterlimit="10" transform="translate(0,360)scale(1,-1)translate(0,-360)" pointer-events="none"/><path d="M 586 374 C 605.14 374 614 374 614 374" fill="none" stroke="#000000" stroke-width="4" stroke-linecap="round" stroke-miterlimit="10" transform="translate(0,360)scale(1,-1)translate(0,-360)" pointer-events="none"/><path d="M 594 386 C 600.24 386 606 386 606 386" fill="none" stroke="#000000" stroke-width="4" stroke-linecap="round" stroke-miterlimit="10" transform="translate(0,360)scale(1,-1)translate(0,-360)" pointer-events="none"/><path d="M 600 322 L 600 358" fill="#000000" stroke="#000000" stroke-width="4" stroke-linecap="square" stroke-miterlimit="10" transform="translate(0,360)scale(1,-1)translate(0,-360)" pointer-events="none"/><rect x="418" y="318" width="4" height="4" fill="#000000" stroke="none" transform="translate(0,360)scale(1,-1)translate(0,-360)" pointer-events="none"/><path d="M 398 362 C 442.04 362 442.04 362 442.04 362" fill="none" stroke="#000000" stroke-width="4" stroke-linecap="round" stroke-miterlimit="10" transform="translate(0,360)scale(1,-1)translate(0,-360)" pointer-events="none"/><path d="M 406 374 C 425.14 374 434 374 434 374" fill="none" stroke="#000000" stroke-width="4" stroke-linecap="round" stroke-miterlimit="10" transform="translate(0,360)scale(1,-1)translate(0,-360)" pointer-events="none"/><path d="M 414 386 C 420.24 386 426 386 426 386" fill="none" stroke="#000000" stroke-width="4" stroke-linecap="round" stroke-miterlimit="10" transform="translate(0,360)scale(1,-1)translate(0,-360)" pointer-events="none"/><path d="M 420 322 L 420 358" fill="#000000" stroke="#000000" stroke-width="4" stroke-linecap="square" stroke-miterlimit="10" transform="translate(0,360)scale(1,-1)translate(0,-360)" pointer-events="none"/><path d="M 420 580 L 420 400" fill="none" stroke="#000000" stroke-width="4" stroke-miterlimit="10" pointer-events="none"/><rect x="798" y="298" width="4" height="4" fill="#000000" stroke="none" pointer-events="none"/><g fill="#000000" font-family="Arial,Helvetica" text-anchor="middle" font-size="24px"><text x="799.38" y="249.72">+3.3V</text></g><path d="M 800 262 L 800 298" fill="#000000" stroke="#000000" stroke-width="4" stroke-linecap="square" stroke-miterlimit="10" pointer-events="none"/><path d="M 780 260 L 820 260" fill="none" stroke="#000000" stroke-width="4" stroke-linecap="square" stroke-miterlimit="10" pointer-events="none"/><path d="M 800 580 L 800 300" fill="none" stroke="#000000" stroke-width="4" stroke-miterlimit="10" pointer-events="none"/><path d="M 420 780 L 600 780" fill="none" stroke="#000000" stroke-width="4" stroke-miterlimit="10" pointer-events="none"/><path d="M 320 780 L 260 780" fill="none" stroke="#000000" stroke-width="4" stroke-miterlimit="10" pointer-events="none"/><rect x="258" y="898" width="4" height="4" fill="#000000" stroke="none" pointer-events="none"/><path d="M 238 942 C 282.04 942 282.04 942 282.04 942" fill="none" stroke="#000000" stroke-width="4" stroke-linecap="round" stroke-miterlimit="10" pointer-events="none"/><path d="M 246 954 C 265.14 954 274 954 274 954" fill="none" stroke="#000000" stroke-width="4" stroke-linecap="round" stroke-miterlimit="10" pointer-events="none"/><path d="M 254 966 C 260.24 966 266 966 266 966" fill="none" stroke="#000000" stroke-width="4" stroke-linecap="round" stroke-miterlimit="10" pointer-events="none"/><path d="M 260 902 L 260 938" fill="#000000" stroke="#000000" stroke-width="4" stroke-linecap="square" stroke-miterlimit="10" pointer-events="none"/><rect x="178" y="778" width="4" height="4" fill="#000000" stroke="none" pointer-events="none"/><path d="M 144 780 L 178 780" fill="#000000" stroke="#000000" stroke-width="4" stroke-linecap="square" stroke-miterlimit="10" pointer-events="none"/><path d="M 134.12 768.68 L 145.44 780 L 134.12 791.32" fill="none" stroke="#000000" stroke-width="4" stroke-linecap="square" stroke-miterlimit="10" pointer-events="none"/><rect x="98" y="760" width="24" height="28" fill-opacity="0" fill="#dae2f2" stroke="none" pointer-events="none"/><g fill="#000000" font-family="Arial,Helvetica" font-weight="bold" text-anchor="middle" font-size="24px"><text x="110" y="782">IN</text></g><path d="M 180 780 L 260 780" fill="none" stroke="#000000" stroke-width="4" stroke-miterlimit="10" pointer-events="none"/><rect x="538" y="798" width="4" height="4" fill="#000000" stroke="none" transform="rotate(90,540,860)" pointer-events="none"/><rect x="538" y="918" width="4" height="4" fill="#000000" stroke="none" transform="rotate(90,540,860)" pointer-events="none"/><path d="M 540 824 L 554 830 L 540 836" fill="none" stroke="#000000" stroke-width="4" stroke-linejoin="round" stroke-linecap="round" stroke-miterlimit="10" transform="rotate(90,540,860)" pointer-events="none"/><path d="M 540 836 L 526 842 L 540 848" fill="none" stroke="#000000" stroke-width="4" stroke-linejoin="round" stroke-linecap="round" stroke-miterlimit="10" transform="rotate(90,540,860)" pointer-events="none"/><path d="M 540 848 L 554 854 L 540 860" fill="none" stroke="#000000" stroke-width="4" stroke-linejoin="round" stroke-linecap="round" stroke-miterlimit="10" transform="rotate(90,540,860)" pointer-events="none"/><path d="M 540 860 L 526 866 L 540 872" fill="none" stroke="#000000" stroke-width="4" stroke-linejoin="round" stroke-linecap="round" stroke-miterlimit="10" transform="rotate(90,540,860)" pointer-events="none"/><path d="M 540 872 L 554 878 L 540 884" fill="none" stroke="#000000" stroke-width="4" stroke-linejoin="round" stroke-linecap="round" stroke-miterlimit="10" transform="rotate(90,540,860)" pointer-events="none"/><path d="M 540 884 L 526 890 L 540 896" fill="none" stroke="#000000" stroke-width="4" stroke-linejoin="round" stroke-linecap="round" stroke-miterlimit="10" transform="rotate(90,540,860)" pointer-events="none"/><path d="M 540 802 L 540 822" fill="#000000" stroke="#000000" stroke-width="4" stroke-linecap="square" stroke-miterlimit="10" transform="rotate(90,540,860)" pointer-events="none"/><path d="M 540 898 L 540 918" fill="#000000" stroke="#000000" stroke-width="4" stroke-linecap="square" stroke-miterlimit="10" transform="rotate(90,540,860)" pointer-events="none"/><rect x="520" y="920" width="36" height="26" fill-opacity="0" fill="#dae2f2" stroke="none" pointer-events="none"/><g fill="#000000" font-family="Arial,Helvetica" font-weight="bold" text-anchor="middle" font-size="24px"><text x="538" y="941">4k7</text></g><rect x="520" y="880" width="28" height="26" fill-opacity="0" fill="#dae2f2" stroke="none" pointer-events="none"/><g fill="#000000" font-family="Arial,Helvetica" font-weight="bold" text-anchor="middle" font-size="24px"><text x="534" y="901">R6</text></g><rect x="398" y="978" width="4" height="4" fill="#000000" stroke="none" transform="rotate(180,400,1030)" pointer-events="none"/><rect x="398" y="1078" width="4" height="4" fill="#000000" stroke="none" transform="rotate(180,400,1030)" pointer-events="none"/><path d="M 378 1022 C 422 1022 422 1022 422 1022" fill="none" stroke="#000000" stroke-width="4" stroke-linecap="round" stroke-miterlimit="10" transform="rotate(180,400,1030)" pointer-events="none"/><path d="M 378 1038 C 422 1038 422 1038 422 1038" fill="none" stroke="#000000" stroke-width="4" stroke-linecap="round" stroke-miterlimit="10" transform="rotate(180,400,1030)" pointer-events="none"/><path d="M 400 982 L 400 1020" fill="#000000" stroke="#000000" stroke-width="4" stroke-linecap="square" stroke-miterlimit="10" transform="rotate(180,400,1030)" pointer-events="none"/><path d="M 400 1040 L 400 1078" fill="#000000" stroke="#000000" stroke-width="4" stroke-linecap="square" stroke-miterlimit="10" transform="rotate(180,400,1030)" pointer-events="none"/><rect x="440" y="1054" width="28" height="26" fill-opacity="0" fill="#dae2f2" stroke="none" pointer-events="none"/><g fill="#000000" font-family="Arial,Helvetica" font-weight="bold" text-anchor="middle" font-size="24px"><text x="454" y="1075">C3</text></g><rect x="414" y="1080" width="50" height="26" fill-opacity="0" fill="#dae2f2" stroke="none" pointer-events="none"/><g fill="#000000" font-family="Arial,Helvetica" font-weight="bold" text-anchor="middle" font-size="24px"><text x="439" y="1101">10uF</text></g><rect x="398" y="1078" width="4" height="4" fill="#000000" stroke="none" pointer-events="none"/><path d="M 378 1122 C 422.04 1122 422.04 1122 422.04 1122" fill="none" stroke="#000000" stroke-width="4" stroke-linecap="round" stroke-miterlimit="10" pointer-events="none"/><path d="M 386 1134 C 405.14 1134 414 1134 414 1134" fill="none" stroke="#000000" stroke-width="4" stroke-linecap="round" stroke-miterlimit="10" pointer-events="none"/><path d="M 394 1146 C 400.24 1146 406 1146 406 1146" fill="none" stroke="#000000" stroke-width="4" stroke-linecap="round" stroke-miterlimit="10" pointer-events="none"/><path d="M 400 1082 L 400 1118" fill="#000000" stroke="#000000" stroke-width="4" stroke-linecap="square" stroke-miterlimit="10" pointer-events="none"/><path d="M 800 860 L 600 860" fill="none" stroke="#000000" stroke-width="4" stroke-miterlimit="10" pointer-events="none"/><path d="M 480 860 L 400 860 L 400 980" fill="none" stroke="#000000" stroke-width="4" stroke-miterlimit="10" pointer-events="none"/><rect x="918" y="978" width="4" height="4" fill="#000000" stroke="none" transform="rotate(90,920,1040)" pointer-events="none"/><rect x="918" y="1098" width="4" height="4" fill="#000000" stroke="none" transform="rotate(90,920,1040)" pointer-events="none"/><path d="M 920 1004 L 934 1010 L 920 1016" fill="none" stroke="#000000" stroke-width="4" stroke-linejoin="round" stroke-linecap="round" stroke-miterlimit="10" transform="rotate(90,920,1040)" pointer-events="none"/><path d="M 920 1016 L 906 1022 L 920 1028" fill="none" stroke="#000000" stroke-width="4" stroke-linejoin="round" stroke-linecap="round" stroke-miterlimit="10" transform="rotate(90,920,1040)" pointer-events="none"/><path d="M 920 1028 L 934 1034 L 920 1040" fill="none" stroke="#000000" stroke-width="4" stroke-linejoin="round" stroke-linecap="round" stroke-miterlimit="10" transform="rotate(90,920,1040)" pointer-events="none"/><path d="M 920 1040 L 906 1046 L 920 1052" fill="none" stroke="#000000" stroke-width="4" stroke-linejoin="round" stroke-linecap="round" stroke-miterlimit="10" transform="rotate(90,920,1040)" pointer-events="none"/><path d="M 920 1052 L 934 1058 L 920 1064" fill="none" stroke="#000000" stroke-width="4" stroke-linejoin="round" stroke-linecap="round" stroke-miterlimit="10" transform="rotate(90,920,1040)" pointer-events="none"/><path d="M 920 1064 L 906 1070 L 920 1076" fill="none" stroke="#000000" stroke-width="4" stroke-linejoin="round" stroke-linecap="round" stroke-miterlimit="10" transform="rotate(90,920,1040)" pointer-events="none"/><path d="M 920 982 L 920 1002" fill="#000000" stroke="#000000" stroke-width="4" stroke-linecap="square" stroke-miterlimit="10" transform="rotate(90,920,1040)" pointer-events="none"/><path d="M 920 1078 L 920 1098" fill="#000000" stroke="#000000" stroke-width="4" stroke-linecap="square" stroke-miterlimit="10" transform="rotate(90,920,1040)" pointer-events="none"/><rect x="952" y="994" width="28" height="26" fill-opacity="0" fill="#dae2f2" stroke="none" pointer-events="none"/><g fill="#000000" font-family="Arial,Helvetica" font-weight="bold" text-anchor="middle" font-size="24px"><text x="966" y="1015">R7</text></g><rect x="932" y="968" width="48" height="26" fill-opacity="0" fill="#dae2f2" stroke="none" pointer-events="none"/><g fill="#000000" font-family="Arial,Helvetica" font-weight="bold" text-anchor="middle" font-size="24px"><text x="956" y="989">100k</text></g><rect x="928" y="1068" width="4" height="4" fill="#000000" stroke="none" transform="rotate(270,930,1120)" pointer-events="none"/><rect x="928" y="1168" width="4" height="4" fill="#000000" stroke="none" transform="rotate(270,930,1120)" pointer-events="none"/><path d="M 908 1112 C 952 1112 952 1112 952 1112" fill="none" stroke="#000000" stroke-width="4" stroke-linecap="round" stroke-miterlimit="10" transform="rotate(270,930,1120)" pointer-events="none"/><path d="M 908 1128 C 952 1128 952 1128 952 1128" fill="none" stroke="#000000" stroke-width="4" stroke-linecap="round" stroke-miterlimit="10" transform="rotate(270,930,1120)" pointer-events="none"/><path d="M 930 1072 L 930 1110" fill="#000000" stroke="#000000" stroke-width="4" stroke-linecap="square" stroke-miterlimit="10" transform="rotate(270,930,1120)" pointer-events="none"/><path d="M 930 1130 L 930 1168" fill="#000000" stroke="#000000" stroke-width="4" stroke-linecap="square" stroke-miterlimit="10" transform="rotate(270,930,1120)" pointer-events="none"/><rect x="880" y="1160" width="28" height="26" fill-opacity="0" fill="#dae2f2" stroke="none" pointer-events="none"/><g fill="#000000" font-family="Arial,Helvetica" font-weight="bold" text-anchor="middle" font-size="24px"><text x="894" y="1181">C4</text></g><rect x="854" y="1186" width="62" height="26" fill-opacity="0" fill="#dae2f2" stroke="none" pointer-events="none"/><g fill="#000000" font-family="Arial,Helvetica" font-weight="bold" text-anchor="middle" font-size="24px"><text x="885" y="1207">180pF</text></g><path d="M 760 864 L 760 1040 L 860 1040" fill="none" stroke="#000000" stroke-width="4" stroke-miterlimit="10" pointer-events="none"/><ellipse cx="760" cy="860" rx="4" ry="4" fill="#000000" stroke="#000000" stroke-width="4" pointer-events="none"/><path d="M 760 1044 L 760 1120 L 880 1120" fill="none" stroke="#000000" stroke-width="4" stroke-miterlimit="10" pointer-events="none"/><ellipse cx="760" cy="1040" rx="4" ry="4" fill="#000000" stroke="#000000" stroke-width="4" pointer-events="none"/><rect x="1198" y="758" width="4" height="4" fill="#000000" stroke="none" transform="rotate(90,1200,820)" pointer-events="none"/><rect x="1198" y="878" width="4" height="4" fill="#000000" stroke="none" transform="rotate(90,1200,820)" pointer-events="none"/><path d="M 1200 784 L 1214 790 L 1200 796" fill="none" stroke="#000000" stroke-width="4" stroke-linejoin="round" stroke-linecap="round" stroke-miterlimit="10" transform="rotate(90,1200,820)" pointer-events="none"/><path d="M 1200 796 L 1186 802 L 1200 808" fill="none" stroke="#000000" stroke-width="4" stroke-linejoin="round" stroke-linecap="round" stroke-miterlimit="10" transform="rotate(90,1200,820)" pointer-events="none"/><path d="M 1200 808 L 1214 814 L 1200 820" fill="none" stroke="#000000" stroke-width="4" stroke-linejoin="round" stroke-linecap="round" stroke-miterlimit="10" transform="rotate(90,1200,820)" pointer-events="none"/><path d="M 1200 820 L 1186 826 L 1200 832" fill="none" stroke="#000000" stroke-width="4" stroke-linejoin="round" stroke-linecap="round" stroke-miterlimit="10" transform="rotate(90,1200,820)" pointer-events="none"/><path d="M 1200 832 L 1214 838 L 1200 844" fill="none" stroke="#000000" stroke-width="4" stroke-linejoin="round" stroke-linecap="round" stroke-miterlimit="10" transform="rotate(90,1200,820)" pointer-events="none"/><path d="M 1200 844 L 1186 850 L 1200 856" fill="none" stroke="#000000" stroke-width="4" stroke-linejoin="round" stroke-linecap="round" stroke-miterlimit="10" transform="rotate(90,1200,820)" pointer-events="none"/><path d="M 1200 762 L 1200 782" fill="#000000" stroke="#000000" stroke-width="4" stroke-linecap="square" stroke-miterlimit="10" transform="rotate(90,1200,820)" pointer-events="none"/><path d="M 1200 858 L 1200 878" fill="#000000" stroke="#000000" stroke-width="4" stroke-linecap="square" stroke-miterlimit="10" transform="rotate(90,1200,820)" pointer-events="none"/><rect x="1232" y="774" width="28" height="26" fill-opacity="0" fill="#dae2f2" stroke="none" pointer-events="none"/><g fill="#000000" font-family="Arial,Helvetica" font-weight="bold" text-anchor="middle" font-size="24px"><text x="1246" y="795">R8</text></g><rect x="1236" y="748" width="24" height="26" fill-opacity="0" fill="#dae2f2" stroke="none" pointer-events="none"/><g fill="#000000" font-family="Arial,Helvetica" font-weight="bold" text-anchor="middle" font-size="24px"><text x="1248" y="769">1k</text></g><path d="M 980 1120 L 1260 1120 L 1260 820" fill="none" stroke="#000000" stroke-width="4" stroke-miterlimit="10" pointer-events="none"/><path d="M 980 1040 L 1256 1040" fill="none" stroke="#000000" stroke-width="4" stroke-miterlimit="10" pointer-events="none"/><ellipse cx="1260" cy="1040" rx="4" ry="4" fill="#000000" stroke="#000000" stroke-width="4" pointer-events="none"/><path d="M 1140 820 L 1060 820" fill="none" stroke="#000000" stroke-width="4" stroke-miterlimit="10" pointer-events="none"/><rect x="1438" y="898" width="4" height="4" fill="#000000" stroke="none" transform="rotate(180,1440,960)" pointer-events="none"/><rect x="1438" y="1018" width="4" height="4" fill="#000000" stroke="none" transform="rotate(180,1440,960)" pointer-events="none"/><path d="M 1440 924 L 1454 930 L 1440 936" fill="none" stroke="#000000" stroke-width="4" stroke-linejoin="round" stroke-linecap="round" stroke-miterlimit="10" transform="rotate(180,1440,960)" pointer-events="none"/><path d="M 1440 936 L 1426 942 L 1440 948" fill="none" stroke="#000000" stroke-width="4" stroke-linejoin="round" stroke-linecap="round" stroke-miterlimit="10" transform="rotate(180,1440,960)" pointer-events="none"/><path d="M 1440 948 L 1454 954 L 1440 960" fill="none" stroke="#000000" stroke-width="4" stroke-linejoin="round" stroke-linecap="round" stroke-miterlimit="10" transform="rotate(180,1440,960)" pointer-events="none"/><path d="M 1440 960 L 1426 966 L 1440 972" fill="none" stroke="#000000" stroke-width="4" stroke-linejoin="round" stroke-linecap="round" stroke-miterlimit="10" transform="rotate(180,1440,960)" pointer-events="none"/><path d="M 1440 972 L 1454 978 L 1440 984" fill="none" stroke="#000000" stroke-width="4" stroke-linejoin="round" stroke-linecap="round" stroke-miterlimit="10" transform="rotate(180,1440,960)" pointer-events="none"/><path d="M 1440 984 L 1426 990 L 1440 996" fill="none" stroke="#000000" stroke-width="4" stroke-linejoin="round" stroke-linecap="round" stroke-miterlimit="10" transform="rotate(180,1440,960)" pointer-events="none"/><path d="M 1440 902 L 1440 922" fill="#000000" stroke="#000000" stroke-width="4" stroke-linecap="square" stroke-miterlimit="10" transform="rotate(180,1440,960)" pointer-events="none"/><path d="M 1440 998 L 1440 1018" fill="#000000" stroke="#000000" stroke-width="4" stroke-linecap="square" stroke-miterlimit="10" transform="rotate(180,1440,960)" pointer-events="none"/><rect x="1460" y="994" width="28" height="26" fill-opacity="0" fill="#dae2f2" stroke="none" pointer-events="none"/><g fill="#000000" font-family="Arial,Helvetica" font-weight="bold" text-anchor="middle" font-size="24px"><text x="1474" y="1015">R9</text></g><rect x="1448" y="1020" width="36" height="26" fill-opacity="0" fill="#dae2f2" stroke="none" pointer-events="none"/><g fill="#000000" font-family="Arial,Helvetica" font-weight="bold" text-anchor="middle" font-size="24px"><text x="1466" y="1041">10k</text></g><path d="M 1440 900 L 1440 820 L 1260 820" fill="none" stroke="#000000" stroke-width="4" stroke-miterlimit="10" pointer-events="none"/><rect x="1438" y="1098" width="4" height="4" fill="#000000" stroke="none" pointer-events="none"/><path d="M 1418 1142 C 1462.04 1142 1462.04 1142 1462.04 1142" fill="none" stroke="#000000" stroke-width="4" stroke-linecap="round" stroke-miterlimit="10" pointer-events="none"/><path d="M 1426 1154 C 1445.14 1154 1454 1154 1454 1154" fill="none" stroke="#000000" stroke-width="4" stroke-linecap="round" stroke-miterlimit="10" pointer-events="none"/><path d="M 1434 1166 C 1440.24 1166 1446 1166 1446 1166" fill="none" stroke="#000000" stroke-width="4" stroke-linecap="round" stroke-miterlimit="10" pointer-events="none"/><path d="M 1440 1102 L 1440 1138" fill="#000000" stroke="#000000" stroke-width="4" stroke-linecap="square" stroke-miterlimit="10" pointer-events="none"/><path d="M 1440 1020 L 1440 1100" fill="none" stroke="#000000" stroke-width="4" stroke-miterlimit="10" pointer-events="none"/><rect x="1558" y="818" width="4" height="4" fill="#000000" stroke="none" transform="translate(1530,0)scale(-1,1)translate(-1530,0)" pointer-events="none"/><path d="M 1524 820 L 1558 820" fill="#000000" stroke="#000000" stroke-width="4" stroke-linecap="square" stroke-miterlimit="10" transform="translate(1530,0)scale(-1,1)translate(-1530,0)" pointer-events="none"/><path d="M 1533 808.68 L 1521.7 820 L 1533 831.32" fill="none" stroke="#000000" stroke-width="4" stroke-linecap="square" stroke-miterlimit="10" transform="translate(1530,0)scale(-1,1)translate(-1530,0)" pointer-events="none"/><path d="M 1521 808.68 L 1509.7 820 L 1521 831.32" fill="none" stroke="#000000" stroke-width="4" stroke-linecap="square" stroke-miterlimit="10" transform="translate(1530,0)scale(-1,1)translate(-1530,0)" pointer-events="none"/><rect x="1574" y="814" width="48" height="26" fill-opacity="0" fill="#dae2f2" stroke="none" pointer-events="none"/><g fill="#000000" font-family="Arial,Helvetica" font-weight="bold" text-anchor="middle" font-size="24px"><text x="1598" y="835">OUT</text></g><path d="M 1444 820 L 1500 820" fill="none" stroke="#000000" stroke-width="4" stroke-miterlimit="10" pointer-events="none"/><ellipse cx="1440" cy="820" rx="4" ry="4" fill="#000000" stroke="#000000" stroke-width="4" pointer-events="none"/></g></svg>