<?xml version="1.0" encoding="utf-8" standalone="no"?>
<!DOCTYPE svg PUBLIC "-//W3C//DTD SVG 1.1//EN"
  "http://www.w3.org/Graphics/SVG/1.1/DTD/svg11.dtd">
<!-- Created with matplotlib (http://matplotlib.org/) -->
<svg height="345pt" version="1.1" viewBox="0 0 460 345" width="460pt" xmlns="http://www.w3.org/2000/svg" xmlns:xlink="http://www.w3.org/1999/xlink">
 <defs>
  <style type="text/css">
*{stroke-linecap:butt;stroke-linejoin:round;}
  </style>
 </defs>
 <g id="figure_1">
  <g id="patch_1">
   <path d="M 0 345.6 
L 460.8 345.6 
L 460.8 0 
L 0 0 
z
" style="fill:#ffffff;"/>
  </g>
  <g id="axes_1">
   <g id="patch_2">
    <path d="M 57.6 307.584 
L 414.72 307.584 
L 414.72 41.472 
L 57.6 41.472 
z
" style="fill:#ffffff;"/>
   </g>
   <g id="matplotlib.axis_1">
    <g id="xtick_1">
     <g id="line2d_1">
      <defs>
       <path d="M 0 0 
L 0 3.5 
" id="ma177636432" style="stroke:#000000;stroke-width:0.8;"/>
      </defs>
      <g>
       <use style="stroke:#000000;stroke-width:0.8;" x="73.832727" xlink:href="#ma177636432" y="307.584"/>
      </g>
     </g>
     <g id="text_1">
      <!-- 0.00 -->
      <defs>
       <path d="M 31.78125 66.40625 
Q 24.171875 66.40625 20.328125 58.90625 
Q 16.5 51.421875 16.5 36.375 
Q 16.5 21.390625 20.328125 13.890625 
Q 24.171875 6.390625 31.78125 6.390625 
Q 39.453125 6.390625 43.28125 13.890625 
Q 47.125 21.390625 47.125 36.375 
Q 47.125 51.421875 43.28125 58.90625 
Q 39.453125 66.40625 31.78125 66.40625 
z
M 31.78125 74.21875 
Q 44.046875 74.21875 50.515625 64.515625 
Q 56.984375 54.828125 56.984375 36.375 
Q 56.984375 17.96875 50.515625 8.265625 
Q 44.046875 -1.421875 31.78125 -1.421875 
Q 19.53125 -1.421875 13.0625 8.265625 
Q 6.59375 17.96875 6.59375 36.375 
Q 6.59375 54.828125 13.0625 64.515625 
Q 19.53125 74.21875 31.78125 74.21875 
z
" id="DejaVuSans-30"/>
       <path d="M 10.6875 12.40625 
L 21 12.40625 
L 21 0 
L 10.6875 0 
z
" id="DejaVuSans-2e"/>
      </defs>
      <g transform="translate(62.699915 322.182437)scale(0.1 -0.1)">
       <use xlink:href="#DejaVuSans-30"/>
       <use x="63.623047" xlink:href="#DejaVuSans-2e"/>
       <use x="95.410156" xlink:href="#DejaVuSans-30"/>
       <use x="159.033203" xlink:href="#DejaVuSans-30"/>
      </g>
     </g>
    </g>
    <g id="xtick_2">
     <g id="line2d_2">
      <g>
       <use style="stroke:#000000;stroke-width:0.8;" x="137.365906" xlink:href="#ma177636432" y="307.584"/>
      </g>
     </g>
     <g id="text_2">
      <!-- 0.05 -->
      <defs>
       <path d="M 10.796875 72.90625 
L 49.515625 72.90625 
L 49.515625 64.59375 
L 19.828125 64.59375 
L 19.828125 46.734375 
Q 21.96875 47.46875 24.109375 47.828125 
Q 26.265625 48.1875 28.421875 48.1875 
Q 40.625 48.1875 47.75 41.5 
Q 54.890625 34.8125 54.890625 23.390625 
Q 54.890625 11.625 47.5625 5.09375 
Q 40.234375 -1.421875 26.90625 -1.421875 
Q 22.3125 -1.421875 17.546875 -0.640625 
Q 12.796875 0.140625 7.71875 1.703125 
L 7.71875 11.625 
Q 12.109375 9.234375 16.796875 8.0625 
Q 21.484375 6.890625 26.703125 6.890625 
Q 35.15625 6.890625 40.078125 11.328125 
Q 45.015625 15.765625 45.015625 23.390625 
Q 45.015625 31 40.078125 35.4375 
Q 35.15625 39.890625 26.703125 39.890625 
Q 22.75 39.890625 18.8125 39.015625 
Q 14.890625 38.140625 10.796875 36.28125 
z
" id="DejaVuSans-35"/>
      </defs>
      <g transform="translate(126.233094 322.182437)scale(0.1 -0.1)">
       <use xlink:href="#DejaVuSans-30"/>
       <use x="63.623047" xlink:href="#DejaVuSans-2e"/>
       <use x="95.410156" xlink:href="#DejaVuSans-30"/>
       <use x="159.033203" xlink:href="#DejaVuSans-35"/>
      </g>
     </g>
    </g>
    <g id="xtick_3">
     <g id="line2d_3">
      <g>
       <use style="stroke:#000000;stroke-width:0.8;" x="200.899086" xlink:href="#ma177636432" y="307.584"/>
      </g>
     </g>
     <g id="text_3">
      <!-- 0.10 -->
      <defs>
       <path d="M 12.40625 8.296875 
L 28.515625 8.296875 
L 28.515625 63.921875 
L 10.984375 60.40625 
L 10.984375 69.390625 
L 28.421875 72.90625 
L 38.28125 72.90625 
L 38.28125 8.296875 
L 54.390625 8.296875 
L 54.390625 0 
L 12.40625 0 
z
" id="DejaVuSans-31"/>
      </defs>
      <g transform="translate(189.766273 322.182437)scale(0.1 -0.1)">
       <use xlink:href="#DejaVuSans-30"/>
       <use x="63.623047" xlink:href="#DejaVuSans-2e"/>
       <use x="95.410156" xlink:href="#DejaVuSans-31"/>
       <use x="159.033203" xlink:href="#DejaVuSans-30"/>
      </g>
     </g>
    </g>
    <g id="xtick_4">
     <g id="line2d_4">
      <g>
       <use style="stroke:#000000;stroke-width:0.8;" x="264.432265" xlink:href="#ma177636432" y="307.584"/>
      </g>
     </g>
     <g id="text_4">
      <!-- 0.15 -->
      <g transform="translate(253.299452 322.182437)scale(0.1 -0.1)">
       <use xlink:href="#DejaVuSans-30"/>
       <use x="63.623047" xlink:href="#DejaVuSans-2e"/>
       <use x="95.410156" xlink:href="#DejaVuSans-31"/>
       <use x="159.033203" xlink:href="#DejaVuSans-35"/>
      </g>
     </g>
    </g>
    <g id="xtick_5">
     <g id="line2d_5">
      <g>
       <use style="stroke:#000000;stroke-width:0.8;" x="327.965444" xlink:href="#ma177636432" y="307.584"/>
      </g>
     </g>
     <g id="text_5">
      <!-- 0.20 -->
      <defs>
       <path d="M 19.1875 8.296875 
L 53.609375 8.296875 
L 53.609375 0 
L 7.328125 0 
L 7.328125 8.296875 
Q 12.9375 14.109375 22.625 23.890625 
Q 32.328125 33.6875 34.8125 36.53125 
Q 39.546875 41.84375 41.421875 45.53125 
Q 43.3125 49.21875 43.3125 52.78125 
Q 43.3125 58.59375 39.234375 62.25 
Q 35.15625 65.921875 28.609375 65.921875 
Q 23.96875 65.921875 18.8125 64.3125 
Q 13.671875 62.703125 7.8125 59.421875 
L 7.8125 69.390625 
Q 13.765625 71.78125 18.9375 73 
Q 24.125 74.21875 28.421875 74.21875 
Q 39.75 74.21875 46.484375 68.546875 
Q 53.21875 62.890625 53.21875 53.421875 
Q 53.21875 48.921875 51.53125 44.890625 
Q 49.859375 40.875 45.40625 35.40625 
Q 44.1875 33.984375 37.640625 27.21875 
Q 31.109375 20.453125 19.1875 8.296875 
z
" id="DejaVuSans-32"/>
      </defs>
      <g transform="translate(316.832631 322.182437)scale(0.1 -0.1)">
       <use xlink:href="#DejaVuSans-30"/>
       <use x="63.623047" xlink:href="#DejaVuSans-2e"/>
       <use x="95.410156" xlink:href="#DejaVuSans-32"/>
       <use x="159.033203" xlink:href="#DejaVuSans-30"/>
      </g>
     </g>
    </g>
    <g id="xtick_6">
     <g id="line2d_6">
      <g>
       <use style="stroke:#000000;stroke-width:0.8;" x="391.498623" xlink:href="#ma177636432" y="307.584"/>
      </g>
     </g>
     <g id="text_6">
      <!-- 0.25 -->
      <g transform="translate(380.365811 322.182437)scale(0.1 -0.1)">
       <use xlink:href="#DejaVuSans-30"/>
       <use x="63.623047" xlink:href="#DejaVuSans-2e"/>
       <use x="95.410156" xlink:href="#DejaVuSans-32"/>
       <use x="159.033203" xlink:href="#DejaVuSans-35"/>
      </g>
     </g>
    </g>
    <g id="text_7">
     <!-- time [sec] -->
     <defs>
      <path d="M 18.3125 70.21875 
L 18.3125 54.6875 
L 36.8125 54.6875 
L 36.8125 47.703125 
L 18.3125 47.703125 
L 18.3125 18.015625 
Q 18.3125 11.328125 20.140625 9.421875 
Q 21.96875 7.515625 27.59375 7.515625 
L 36.8125 7.515625 
L 36.8125 0 
L 27.59375 0 
Q 17.1875 0 13.234375 3.875 
Q 9.28125 7.765625 9.28125 18.015625 
L 9.28125 47.703125 
L 2.6875 47.703125 
L 2.6875 54.6875 
L 9.28125 54.6875 
L 9.28125 70.21875 
z
" id="DejaVuSans-74"/>
      <path d="M 9.421875 54.6875 
L 18.40625 54.6875 
L 18.40625 0 
L 9.421875 0 
z
M 9.421875 75.984375 
L 18.40625 75.984375 
L 18.40625 64.59375 
L 9.421875 64.59375 
z
" id="DejaVuSans-69"/>
      <path d="M 52 44.1875 
Q 55.375 50.25 60.0625 53.125 
Q 64.75 56 71.09375 56 
Q 79.640625 56 84.28125 50.015625 
Q 88.921875 44.046875 88.921875 33.015625 
L 88.921875 0 
L 79.890625 0 
L 79.890625 32.71875 
Q 79.890625 40.578125 77.09375 44.375 
Q 74.3125 48.1875 68.609375 48.1875 
Q 61.625 48.1875 57.5625 43.546875 
Q 53.515625 38.921875 53.515625 30.90625 
L 53.515625 0 
L 44.484375 0 
L 44.484375 32.71875 
Q 44.484375 40.625 41.703125 44.40625 
Q 38.921875 48.1875 33.109375 48.1875 
Q 26.21875 48.1875 22.15625 43.53125 
Q 18.109375 38.875 18.109375 30.90625 
L 18.109375 0 
L 9.078125 0 
L 9.078125 54.6875 
L 18.109375 54.6875 
L 18.109375 46.1875 
Q 21.1875 51.21875 25.484375 53.609375 
Q 29.78125 56 35.6875 56 
Q 41.65625 56 45.828125 52.96875 
Q 50 49.953125 52 44.1875 
z
" id="DejaVuSans-6d"/>
      <path d="M 56.203125 29.59375 
L 56.203125 25.203125 
L 14.890625 25.203125 
Q 15.484375 15.921875 20.484375 11.0625 
Q 25.484375 6.203125 34.421875 6.203125 
Q 39.59375 6.203125 44.453125 7.46875 
Q 49.3125 8.734375 54.109375 11.28125 
L 54.109375 2.78125 
Q 49.265625 0.734375 44.1875 -0.34375 
Q 39.109375 -1.421875 33.890625 -1.421875 
Q 20.796875 -1.421875 13.15625 6.1875 
Q 5.515625 13.8125 5.515625 26.8125 
Q 5.515625 40.234375 12.765625 48.109375 
Q 20.015625 56 32.328125 56 
Q 43.359375 56 49.78125 48.890625 
Q 56.203125 41.796875 56.203125 29.59375 
z
M 47.21875 32.234375 
Q 47.125 39.59375 43.09375 43.984375 
Q 39.0625 48.390625 32.421875 48.390625 
Q 24.90625 48.390625 20.390625 44.140625 
Q 15.875 39.890625 15.1875 32.171875 
z
" id="DejaVuSans-65"/>
      <path id="DejaVuSans-20"/>
      <path d="M 8.59375 75.984375 
L 29.296875 75.984375 
L 29.296875 69 
L 17.578125 69 
L 17.578125 -6.203125 
L 29.296875 -6.203125 
L 29.296875 -13.1875 
L 8.59375 -13.1875 
z
" id="DejaVuSans-5b"/>
      <path d="M 44.28125 53.078125 
L 44.28125 44.578125 
Q 40.484375 46.53125 36.375 47.5 
Q 32.28125 48.484375 27.875 48.484375 
Q 21.1875 48.484375 17.84375 46.4375 
Q 14.5 44.390625 14.5 40.28125 
Q 14.5 37.15625 16.890625 35.375 
Q 19.28125 33.59375 26.515625 31.984375 
L 29.59375 31.296875 
Q 39.15625 29.25 43.1875 25.515625 
Q 47.21875 21.78125 47.21875 15.09375 
Q 47.21875 7.46875 41.1875 3.015625 
Q 35.15625 -1.421875 24.609375 -1.421875 
Q 20.21875 -1.421875 15.453125 -0.5625 
Q 10.6875 0.296875 5.421875 2 
L 5.421875 11.28125 
Q 10.40625 8.6875 15.234375 7.390625 
Q 20.0625 6.109375 24.8125 6.109375 
Q 31.15625 6.109375 34.5625 8.28125 
Q 37.984375 10.453125 37.984375 14.40625 
Q 37.984375 18.0625 35.515625 20.015625 
Q 33.0625 21.96875 24.703125 23.78125 
L 21.578125 24.515625 
Q 13.234375 26.265625 9.515625 29.90625 
Q 5.8125 33.546875 5.8125 39.890625 
Q 5.8125 47.609375 11.28125 51.796875 
Q 16.75 56 26.8125 56 
Q 31.78125 56 36.171875 55.265625 
Q 40.578125 54.546875 44.28125 53.078125 
z
" id="DejaVuSans-73"/>
      <path d="M 48.78125 52.59375 
L 48.78125 44.1875 
Q 44.96875 46.296875 41.140625 47.34375 
Q 37.3125 48.390625 33.40625 48.390625 
Q 24.65625 48.390625 19.8125 42.84375 
Q 14.984375 37.3125 14.984375 27.296875 
Q 14.984375 17.28125 19.8125 11.734375 
Q 24.65625 6.203125 33.40625 6.203125 
Q 37.3125 6.203125 41.140625 7.25 
Q 44.96875 8.296875 48.78125 10.40625 
L 48.78125 2.09375 
Q 45.015625 0.34375 40.984375 -0.53125 
Q 36.96875 -1.421875 32.421875 -1.421875 
Q 20.0625 -1.421875 12.78125 6.34375 
Q 5.515625 14.109375 5.515625 27.296875 
Q 5.515625 40.671875 12.859375 48.328125 
Q 20.21875 56 33.015625 56 
Q 37.15625 56 41.109375 55.140625 
Q 45.0625 54.296875 48.78125 52.59375 
z
" id="DejaVuSans-63"/>
      <path d="M 30.421875 75.984375 
L 30.421875 -13.1875 
L 9.71875 -13.1875 
L 9.71875 -6.203125 
L 21.390625 -6.203125 
L 21.390625 69 
L 9.71875 69 
L 9.71875 75.984375 
z
" id="DejaVuSans-5d"/>
     </defs>
     <g transform="translate(210.942813 335.860562)scale(0.1 -0.1)">
      <use xlink:href="#DejaVuSans-74"/>
      <use x="39.208984" xlink:href="#DejaVuSans-69"/>
      <use x="66.992188" xlink:href="#DejaVuSans-6d"/>
      <use x="164.404297" xlink:href="#DejaVuSans-65"/>
      <use x="225.927734" xlink:href="#DejaVuSans-20"/>
      <use x="257.714844" xlink:href="#DejaVuSans-5b"/>
      <use x="296.728516" xlink:href="#DejaVuSans-73"/>
      <use x="348.828125" xlink:href="#DejaVuSans-65"/>
      <use x="410.351562" xlink:href="#DejaVuSans-63"/>
      <use x="465.332031" xlink:href="#DejaVuSans-5d"/>
     </g>
    </g>
   </g>
   <g id="matplotlib.axis_2">
    <g id="ytick_1">
     <g id="line2d_7">
      <defs>
       <path d="M 0 0 
L -3.5 0 
" id="mf0abeb6c02" style="stroke:#000000;stroke-width:0.8;"/>
      </defs>
      <g>
       <use style="stroke:#000000;stroke-width:0.8;" x="57.6" xlink:href="#mf0abeb6c02" y="296.540112"/>
      </g>
     </g>
     <g id="text_8">
      <!-- 0.0 -->
      <g transform="translate(34.696875 300.339331)scale(0.1 -0.1)">
       <use xlink:href="#DejaVuSans-30"/>
       <use x="63.623047" xlink:href="#DejaVuSans-2e"/>
       <use x="95.410156" xlink:href="#DejaVuSans-30"/>
      </g>
     </g>
    </g>
    <g id="ytick_2">
     <g id="line2d_8">
      <g>
       <use style="stroke:#000000;stroke-width:0.8;" x="57.6" xlink:href="#mf0abeb6c02" y="255.740883"/>
      </g>
     </g>
     <g id="text_9">
      <!-- 0.5 -->
      <g transform="translate(34.696875 259.540102)scale(0.1 -0.1)">
       <use xlink:href="#DejaVuSans-30"/>
       <use x="63.623047" xlink:href="#DejaVuSans-2e"/>
       <use x="95.410156" xlink:href="#DejaVuSans-35"/>
      </g>
     </g>
    </g>
    <g id="ytick_3">
     <g id="line2d_9">
      <g>
       <use style="stroke:#000000;stroke-width:0.8;" x="57.6" xlink:href="#mf0abeb6c02" y="214.941654"/>
      </g>
     </g>
     <g id="text_10">
      <!-- 1.0 -->
      <g transform="translate(34.696875 218.740873)scale(0.1 -0.1)">
       <use xlink:href="#DejaVuSans-31"/>
       <use x="63.623047" xlink:href="#DejaVuSans-2e"/>
       <use x="95.410156" xlink:href="#DejaVuSans-30"/>
      </g>
     </g>
    </g>
    <g id="ytick_4">
     <g id="line2d_10">
      <g>
       <use style="stroke:#000000;stroke-width:0.8;" x="57.6" xlink:href="#mf0abeb6c02" y="174.142425"/>
      </g>
     </g>
     <g id="text_11">
      <!-- 1.5 -->
      <g transform="translate(34.696875 177.941644)scale(0.1 -0.1)">
       <use xlink:href="#DejaVuSans-31"/>
       <use x="63.623047" xlink:href="#DejaVuSans-2e"/>
       <use x="95.410156" xlink:href="#DejaVuSans-35"/>
      </g>
     </g>
    </g>
    <g id="ytick_5">
     <g id="line2d_11">
      <g>
       <use style="stroke:#000000;stroke-width:0.8;" x="57.6" xlink:href="#mf0abeb6c02" y="133.343196"/>
      </g>
     </g>
     <g id="text_12">
      <!-- 2.0 -->
      <g transform="translate(34.696875 137.142415)scale(0.1 -0.1)">
       <use xlink:href="#DejaVuSans-32"/>
       <use x="63.623047" xlink:href="#DejaVuSans-2e"/>
       <use x="95.410156" xlink:href="#DejaVuSans-30"/>
      </g>
     </g>
    </g>
    <g id="ytick_6">
     <g id="line2d_12">
      <g>
       <use style="stroke:#000000;stroke-width:0.8;" x="57.6" xlink:href="#mf0abeb6c02" y="92.543967"/>
      </g>
     </g>
     <g id="text_13">
      <!-- 2.5 -->
      <g transform="translate(34.696875 96.343186)scale(0.1 -0.1)">
       <use xlink:href="#DejaVuSans-32"/>
       <use x="63.623047" xlink:href="#DejaVuSans-2e"/>
       <use x="95.410156" xlink:href="#DejaVuSans-35"/>
      </g>
     </g>
    </g>
    <g id="ytick_7">
     <g id="line2d_13">
      <g>
       <use style="stroke:#000000;stroke-width:0.8;" x="57.6" xlink:href="#mf0abeb6c02" y="51.744738"/>
      </g>
     </g>
     <g id="text_14">
      <!-- 3.0 -->
      <defs>
       <path d="M 40.578125 39.3125 
Q 47.65625 37.796875 51.625 33 
Q 55.609375 28.21875 55.609375 21.1875 
Q 55.609375 10.40625 48.1875 4.484375 
Q 40.765625 -1.421875 27.09375 -1.421875 
Q 22.515625 -1.421875 17.65625 -0.515625 
Q 12.796875 0.390625 7.625 2.203125 
L 7.625 11.71875 
Q 11.71875 9.328125 16.59375 8.109375 
Q 21.484375 6.890625 26.8125 6.890625 
Q 36.078125 6.890625 40.9375 10.546875 
Q 45.796875 14.203125 45.796875 21.1875 
Q 45.796875 27.640625 41.28125 31.265625 
Q 36.765625 34.90625 28.71875 34.90625 
L 20.21875 34.90625 
L 20.21875 43.015625 
L 29.109375 43.015625 
Q 36.375 43.015625 40.234375 45.921875 
Q 44.09375 48.828125 44.09375 54.296875 
Q 44.09375 59.90625 40.109375 62.90625 
Q 36.140625 65.921875 28.71875 65.921875 
Q 24.65625 65.921875 20.015625 65.03125 
Q 15.375 64.15625 9.8125 62.3125 
L 9.8125 71.09375 
Q 15.4375 72.65625 20.34375 73.4375 
Q 25.25 74.21875 29.59375 74.21875 
Q 40.828125 74.21875 47.359375 69.109375 
Q 53.90625 64.015625 53.90625 55.328125 
Q 53.90625 49.265625 50.4375 45.09375 
Q 46.96875 40.921875 40.578125 39.3125 
z
" id="DejaVuSans-33"/>
      </defs>
      <g transform="translate(34.696875 55.543956)scale(0.1 -0.1)">
       <use xlink:href="#DejaVuSans-33"/>
       <use x="63.623047" xlink:href="#DejaVuSans-2e"/>
       <use x="95.410156" xlink:href="#DejaVuSans-30"/>
      </g>
     </g>
    </g>
    <g id="text_15">
     <!-- V -->
     <defs>
      <path d="M 28.609375 0 
L 0.78125 72.90625 
L 11.078125 72.90625 
L 34.1875 11.53125 
L 57.328125 72.90625 
L 67.578125 72.90625 
L 39.796875 0 
z
" id="DejaVuSans-56"/>
     </defs>
     <g transform="translate(28.617188 177.948312)rotate(-90)scale(0.1 -0.1)">
      <use xlink:href="#DejaVuSans-56"/>
     </g>
    </g>
   </g>
   <g id="line2d_14">
    <path clip-path="url(#pb8655ec319)" d="M 73.832727 146.416883 
L 74.468059 184.424428 
L 75.103391 193.433137 
L 75.738723 270.631854 
L 76.374054 281.67903 
L 77.009386 260.768304 
L 77.644718 205.269397 
L 78.28005 202.047304 
L 78.915382 199.811566 
L 79.550713 241.961803 
L 80.186045 234.465505 
L 80.821377 196.194931 
L 81.456709 107.291468 
L 82.092041 57.710691 
L 82.727372 54.422841 
L 83.362704 110.645075 
L 83.998036 149.375948 
L 84.633368 203.625472 
L 85.2687 179.361139 
L 86.539363 88.616481 
L 87.174695 96.836105 
L 87.810027 117.878345 
L 88.445358 151.282901 
L 89.08069 136.027277 
L 89.716022 85.78893 
L 90.351354 55.211925 
L 90.986686 55.080411 
L 91.622017 53.962542 
L 92.892681 184.029886 
L 93.528013 229.994029 
L 94.163345 224.733469 
L 94.798676 181.268092 
L 95.434008 171.404543 
L 96.06934 189.093175 
L 96.704672 251.825353 
L 97.340004 278.39118 
L 97.975335 263.793126 
L 98.610667 188.961661 
L 99.881331 75.596595 
L 101.151994 189.750745 
L 101.787326 272.078508 
L 102.422658 287.728674 
L 103.05799 264.056154 
L 103.693321 202.770631 
L 104.328653 192.381025 
L 104.963985 191.591941 
L 105.599317 230.914627 
L 106.234649 233.018851 
L 106.86998 194.945548 
L 107.505312 110.250533 
L 108.140644 55.146168 
L 108.775976 54.291327 
L 110.046639 136.816361 
L 110.681971 194.814034 
L 111.317303 177.125401 
L 112.587967 86.906799 
L 113.223298 94.008554 
L 113.85863 118.272887 
L 114.493962 149.375948 
L 115.129294 139.117856 
L 116.399957 54.028299 
L 117.035289 54.422841 
L 117.670621 54.028299 
L 119.576616 244.65784 
L 120.211948 236.438215 
L 120.84728 198.562183 
L 121.482612 180.018709 
L 122.117943 202.704874 
L 122.753275 255.244716 
L 123.388607 289.043814 
L 124.023939 265.89735 
L 124.659271 183.898372 
L 125.929934 72.374502 
L 126.565266 125.177372 
L 127.83593 267.344004 
L 128.471261 283.914768 
L 129.106593 259.387407 
L 129.741925 197.904613 
L 130.377257 187.843792 
L 131.012589 188.10682 
L 131.64792 225.391039 
L 132.283252 223.681357 
L 132.918584 193.959193 
L 133.553916 107.094197 
L 134.189247 55.211925 
L 134.824579 54.948897 
L 135.459911 85.723173 
L 136.095243 125.506157 
L 136.730575 188.369848 
L 137.365906 171.864842 
L 138.001238 138.854828 
L 138.63657 85.657416 
L 139.271902 95.915507 
L 139.907234 111.894458 
L 140.542565 149.836247 
L 141.177897 141.090566 
L 141.813229 105.910571 
L 142.448561 56.132523 
L 143.083893 55.343439 
L 143.719224 53.896785 
L 144.354556 115.313822 
L 144.989888 190.276801 
L 145.62522 251.825353 
L 146.260552 251.956867 
L 146.895883 214.278106 
L 147.531215 196.326445 
L 148.166547 210.135415 
L 148.801879 259.387407 
L 149.43721 287.860188 
L 150.072542 262.346472 
L 150.707874 182.517475 
L 151.978538 71.651175 
L 153.249201 186.594409 
L 153.884533 261.29436 
L 154.519865 277.010283 
L 155.155197 255.639258 
L 155.790528 195.011305 
L 156.42586 184.884727 
L 157.061192 180.150223 
L 157.696524 215.461732 
L 158.331856 216.711115 
L 158.967187 190.539829 
L 159.602519 102.096665 
L 160.237851 54.422841 
L 160.873183 55.343439 
L 161.508514 74.412969 
L 162.143846 117.681074 
L 162.779178 179.361139 
L 163.41451 171.667571 
L 164.049842 137.93423 
L 164.685173 86.512257 
L 165.320505 88.090425 
L 165.955837 109.329935 
L 166.591169 151.414415 
L 167.226501 150.625331 
L 167.861832 115.971392 
L 168.497164 60.406728 
L 169.132496 55.146168 
L 169.767828 54.620112 
L 171.673823 256.165314 
L 172.309155 263.464341 
L 172.944487 232.492795 
L 173.579819 208.623004 
L 174.21515 220.196236 
L 174.850482 255.244716 
L 175.485814 277.799367 
L 176.121146 258.795594 
L 176.756477 182.648989 
L 178.027141 80.002314 
L 178.662473 123.270419 
L 179.933136 248.208718 
L 180.568468 268.133088 
L 181.2038 251.23354 
L 181.839132 194.68252 
L 182.474464 177.717214 
L 183.109795 173.245739 
L 183.745127 201.91579 
L 184.380459 208.162705 
L 185.015791 182.254447 
L 185.651123 93.285228 
L 186.286454 54.159813 
L 186.921786 55.277682 
L 187.557118 58.105233 
L 188.19245 108.672365 
L 188.827782 170.352431 
L 189.463113 169.892132 
L 190.098445 141.090566 
L 190.733777 84.671061 
L 191.369109 90.128892 
L 192.00444 109.198421 
L 192.639772 157.529816 
L 193.275104 161.475236 
L 193.910436 128.202194 
L 194.545768 69.612708 
L 195.181099 54.817383 
L 195.816431 54.291327 
L 197.722427 263.595855 
L 198.357758 277.865124 
L 199.628422 220.590778 
L 200.263754 221.116834 
L 200.899086 240.186364 
L 201.534417 267.804303 
L 202.169749 255.37623 
L 202.805081 189.882259 
L 204.075745 88.484967 
L 204.711076 115.905635 
L 205.98174 235.583374 
L 206.617072 260.505276 
L 207.252403 246.959335 
L 207.887735 189.42196 
L 208.523067 169.366076 
L 209.158399 163.645217 
L 209.793731 192.117997 
L 210.429062 197.378557 
L 211.064394 172.522412 
L 211.699726 89.668593 
L 212.335058 55.737981 
L 212.97039 53.568 
L 213.605721 55.211925 
L 214.241053 98.348516 
L 214.876385 162.461591 
L 215.511717 166.86731 
L 216.147049 145.956584 
L 216.78238 87.695883 
L 217.417712 93.416742 
L 218.053044 113.867168 
L 218.688376 165.749441 
L 219.323708 171.799085 
L 219.959039 141.945407 
L 220.594371 85.197117 
L 221.229703 57.447663 
L 221.865035 54.357084 
L 223.77103 274.643031 
L 224.406362 288.9123 
L 225.041694 263.398584 
L 225.677025 221.314105 
L 226.312357 211.450555 
L 226.947689 228.547375 
L 227.583021 258.927108 
L 228.218353 258.532566 
L 230.124348 91.772817 
L 230.75968 109.592963 
L 232.030343 223.023787 
L 232.665675 249.523858 
L 233.301007 240.580906 
L 233.936339 182.122933 
L 234.571671 163.908245 
L 235.207002 156.083162 
L 235.842334 179.689924 
L 236.477666 182.583232 
L 237.112998 165.880955 
L 237.748329 87.893154 
L 238.383661 55.080411 
L 239.018993 54.685869 
L 239.654325 55.277682 
L 240.289657 90.063135 
L 240.924988 155.491349 
L 241.56032 168.445478 
L 242.195652 152.335013 
L 242.830984 96.704591 
L 243.466316 101.373338 
L 244.101647 121.49498 
L 244.736979 169.168805 
L 245.372311 181.794148 
L 246.007643 157.858601 
L 246.642975 109.264178 
L 247.278306 73.032072 
L 247.913638 54.094056 
L 249.184302 208.557247 
L 249.819634 278.588451 
L 250.454965 295.488 
L 251.090297 266.883705 
L 251.725629 215.06719 
L 252.360961 203.099416 
L 252.996292 217.105657 
L 253.631624 254.324119 
L 254.266956 267.146733 
L 255.53762 154.241966 
L 256.172951 91.772817 
L 256.808283 95.520965 
L 258.078947 208.359976 
L 258.714279 241.961803 
L 259.34961 232.755823 
L 259.984942 179.821438 
L 260.620274 153.650153 
L 261.255606 146.48264 
L 261.890938 163.57946 
L 262.526269 175.744504 
L 263.161601 162.658862 
L 263.796933 87.301341 
L 264.432265 54.817383 
L 265.067597 54.422841 
L 265.702928 54.685869 
L 266.33826 87.432855 
L 266.973592 150.756845 
L 267.608924 171.864842 
L 268.244255 158.450414 
L 268.879587 107.357225 
L 269.514919 109.395692 
L 270.150251 125.834942 
L 270.785583 176.92813 
L 271.420914 194.68252 
L 272.056246 180.676279 
L 272.691578 126.229484 
L 273.32691 92.561901 
L 273.962242 72.900558 
L 274.597573 150.296546 
L 275.868237 284.177796 
L 276.503569 295.159215 
L 277.138901 259.453164 
L 277.774232 207.965434 
L 278.409564 198.233398 
L 279.044896 213.028723 
L 279.680228 260.044977 
L 280.31556 272.999106 
L 280.950891 218.618068 
L 282.221555 88.484967 
L 282.856887 85.065603 
L 284.12755 195.34009 
L 284.762882 232.361281 
L 285.398214 226.969207 
L 286.033546 173.508767 
L 286.668877 145.430528 
L 287.304209 133.98881 
L 287.939541 154.37348 
L 288.574873 165.223385 
L 289.210205 156.872246 
L 289.845536 84.802575 
L 290.480868 55.146168 
L 291.1162 55.014654 
L 291.751532 55.869495 
L 292.386864 81.514725 
L 293.022195 145.430528 
L 293.657527 171.996356 
L 294.292859 172.193627 
L 294.928191 120.048326 
L 295.563523 116.497448 
L 296.198854 127.741895 
L 296.834186 183.372316 
L 297.469518 211.647826 
L 298.10485 200.140351 
L 298.740181 145.693556 
L 299.375513 109.592963 
L 300.010845 89.339808 
L 301.91684 277.602096 
L 302.552172 281.416002 
L 303.187504 252.54868 
L 303.822836 201.91579 
L 304.458168 197.3128 
L 305.093499 217.0399 
L 305.728831 261.491631 
L 306.364163 274.774545 
L 306.999495 220.788049 
L 308.270158 83.881977 
L 308.90549 76.122651 
L 310.811486 224.075899 
L 311.446817 221.511376 
L 312.082149 166.275497 
L 312.717481 132.081857 
L 313.352813 122.875877 
L 313.988144 144.378416 
L 314.623476 158.97647 
L 315.258808 155.951648 
L 315.89414 87.235584 
L 316.529472 54.948897 
L 317.164803 54.685869 
L 317.800135 54.22557 
L 318.435467 75.728109 
L 319.070799 141.485108 
L 319.706131 175.547233 
L 320.341462 179.952952 
L 320.976794 129.38582 
L 321.612126 122.481335 
L 322.247458 137.013632 
L 322.88279 197.97037 
L 323.518121 228.21859 
L 324.153453 216.974143 
L 324.788785 164.500058 
L 325.424117 128.004923 
L 326.059448 100.058198 
L 327.330112 209.214817 
L 327.965444 259.453164 
L 328.600776 271.026396 
L 329.236107 246.893578 
L 329.871439 206.453023 
L 330.506771 205.532425 
L 331.142103 220.98532 
L 331.777435 257.480454 
L 332.412766 268.922172 
L 333.048098 217.565956 
L 334.318762 83.618949 
L 334.954094 68.297568 
L 336.860089 211.845097 
L 337.495421 211.516312 
L 338.130753 155.557106 
L 338.766084 122.547092 
L 339.401416 113.60414 
L 340.67208 153.189854 
L 341.307411 152.861069 
L 341.942743 91.246761 
L 342.578075 54.22557 
L 343.213407 54.357084 
L 343.848739 54.948897 
L 344.48407 72.63753 
L 345.119402 140.104211 
L 345.754734 179.492653 
L 346.390066 186.79168 
L 347.025398 139.578155 
L 347.660729 133.002455 
L 348.296061 153.321368 
L 348.931393 207.505135 
L 349.566725 239.726065 
L 350.202057 235.320346 
L 350.837388 183.438073 
L 352.108052 110.053262 
L 352.743384 154.636508 
L 353.378716 189.750745 
L 354.014047 251.693839 
L 354.649379 258.861351 
L 355.284711 252.088381 
L 355.920043 212.634181 
L 356.555374 211.450555 
L 357.190706 216.119302 
L 357.826038 251.825353 
L 358.46137 259.847706 
L 359.096702 219.735937 
L 360.367365 86.775285 
L 361.002697 56.85585 
L 361.638029 98.874572 
L 362.273361 155.359835 
L 362.908692 194.68252 
L 363.544024 196.852501 
L 364.179356 148.45535 
L 364.814688 111.499916 
L 365.45002 104.661188 
L 366.720683 148.060808 
L 367.356015 154.176209 
L 367.991347 96.704591 
L 368.626679 54.159813 
L 369.26201 55.474953 
L 369.897342 53.633757 
L 370.532674 72.045717 
L 371.168006 140.630267 
L 371.803337 180.807793 
L 372.438669 195.405847 
L 373.074001 154.241966 
L 373.709333 152.861069 
L 374.344665 164.23703 
L 374.979996 217.763227 
L 375.615328 248.800531 
L 376.25066 257.283183 
L 376.885992 198.759454 
L 377.521324 160.160096 
L 378.156655 110.447804 
L 378.791987 140.761781 
L 379.427319 177.651457 
L 380.062651 237.161542 
L 380.697983 256.954398 
L 381.333314 257.809239 
L 381.968646 218.815339 
L 382.603978 211.187527 
L 383.23931 211.582069 
L 383.874642 241.304233 
L 384.509973 254.652904 
L 385.145305 217.302928 
L 386.415969 82.632594 
L 387.0513 55.080411 
L 387.686632 87.827397 
L 388.957296 176.533588 
L 389.592628 184.292914 
L 390.863291 106.962683 
L 391.498623 99.992441 
L 392.769287 143.457818 
L 393.404618 155.622863 
L 394.03995 99.334871 
L 394.675282 55.672224 
L 395.310614 54.291327 
L 395.945946 54.22557 
L 396.581277 71.388147 
L 397.216609 135.698492 
L 397.851941 180.413251 
L 398.487273 205.400911 
L 398.487273 205.400911 
" style="fill:none;stroke:#1f77b4;stroke-linecap:square;stroke-width:1.5;"/>
   </g>
   <g id="patch_3">
    <path d="M 57.6 307.584 
L 57.6 41.472 
" style="fill:none;stroke:#000000;stroke-linecap:square;stroke-linejoin:miter;stroke-width:0.8;"/>
   </g>
   <g id="patch_4">
    <path d="M 414.72 307.584 
L 414.72 41.472 
" style="fill:none;stroke:#000000;stroke-linecap:square;stroke-linejoin:miter;stroke-width:0.8;"/>
   </g>
   <g id="patch_5">
    <path d="M 57.6 307.584 
L 414.72 307.584 
" style="fill:none;stroke:#000000;stroke-linecap:square;stroke-linejoin:miter;stroke-width:0.8;"/>
   </g>
   <g id="patch_6">
    <path d="M 57.6 41.472 
L 414.72 41.472 
" style="fill:none;stroke:#000000;stroke-linecap:square;stroke-linejoin:miter;stroke-width:0.8;"/>
   </g>
   <g id="text_16">
    <!-- Sampled signal -->
    <defs>
     <path d="M 53.515625 70.515625 
L 53.515625 60.890625 
Q 47.90625 63.578125 42.921875 64.890625 
Q 37.9375 66.21875 33.296875 66.21875 
Q 25.25 66.21875 20.875 63.09375 
Q 16.5 59.96875 16.5 54.203125 
Q 16.5 49.359375 19.40625 46.890625 
Q 22.3125 44.4375 30.421875 42.921875 
L 36.375 41.703125 
Q 47.40625 39.59375 52.65625 34.296875 
Q 57.90625 29 57.90625 20.125 
Q 57.90625 9.515625 50.796875 4.046875 
Q 43.703125 -1.421875 29.984375 -1.421875 
Q 24.8125 -1.421875 18.96875 -0.25 
Q 13.140625 0.921875 6.890625 3.21875 
L 6.890625 13.375 
Q 12.890625 10.015625 18.65625 8.296875 
Q 24.421875 6.59375 29.984375 6.59375 
Q 38.421875 6.59375 43.015625 9.90625 
Q 47.609375 13.234375 47.609375 19.390625 
Q 47.609375 24.75 44.3125 27.78125 
Q 41.015625 30.8125 33.5 32.328125 
L 27.484375 33.5 
Q 16.453125 35.6875 11.515625 40.375 
Q 6.59375 45.0625 6.59375 53.421875 
Q 6.59375 63.09375 13.40625 68.65625 
Q 20.21875 74.21875 32.171875 74.21875 
Q 37.3125 74.21875 42.625 73.28125 
Q 47.953125 72.359375 53.515625 70.515625 
z
" id="DejaVuSans-53"/>
     <path d="M 34.28125 27.484375 
Q 23.390625 27.484375 19.1875 25 
Q 14.984375 22.515625 14.984375 16.5 
Q 14.984375 11.71875 18.140625 8.90625 
Q 21.296875 6.109375 26.703125 6.109375 
Q 34.1875 6.109375 38.703125 11.40625 
Q 43.21875 16.703125 43.21875 25.484375 
L 43.21875 27.484375 
z
M 52.203125 31.203125 
L 52.203125 0 
L 43.21875 0 
L 43.21875 8.296875 
Q 40.140625 3.328125 35.546875 0.953125 
Q 30.953125 -1.421875 24.3125 -1.421875 
Q 15.921875 -1.421875 10.953125 3.296875 
Q 6 8.015625 6 15.921875 
Q 6 25.140625 12.171875 29.828125 
Q 18.359375 34.515625 30.609375 34.515625 
L 43.21875 34.515625 
L 43.21875 35.40625 
Q 43.21875 41.609375 39.140625 45 
Q 35.0625 48.390625 27.6875 48.390625 
Q 23 48.390625 18.546875 47.265625 
Q 14.109375 46.140625 10.015625 43.890625 
L 10.015625 52.203125 
Q 14.9375 54.109375 19.578125 55.046875 
Q 24.21875 56 28.609375 56 
Q 40.484375 56 46.34375 49.84375 
Q 52.203125 43.703125 52.203125 31.203125 
z
" id="DejaVuSans-61"/>
     <path d="M 18.109375 8.203125 
L 18.109375 -20.796875 
L 9.078125 -20.796875 
L 9.078125 54.6875 
L 18.109375 54.6875 
L 18.109375 46.390625 
Q 20.953125 51.265625 25.265625 53.625 
Q 29.59375 56 35.59375 56 
Q 45.5625 56 51.78125 48.09375 
Q 58.015625 40.1875 58.015625 27.296875 
Q 58.015625 14.40625 51.78125 6.484375 
Q 45.5625 -1.421875 35.59375 -1.421875 
Q 29.59375 -1.421875 25.265625 0.953125 
Q 20.953125 3.328125 18.109375 8.203125 
z
M 48.6875 27.296875 
Q 48.6875 37.203125 44.609375 42.84375 
Q 40.53125 48.484375 33.40625 48.484375 
Q 26.265625 48.484375 22.1875 42.84375 
Q 18.109375 37.203125 18.109375 27.296875 
Q 18.109375 17.390625 22.1875 11.75 
Q 26.265625 6.109375 33.40625 6.109375 
Q 40.53125 6.109375 44.609375 11.75 
Q 48.6875 17.390625 48.6875 27.296875 
z
" id="DejaVuSans-70"/>
     <path d="M 9.421875 75.984375 
L 18.40625 75.984375 
L 18.40625 0 
L 9.421875 0 
z
" id="DejaVuSans-6c"/>
     <path d="M 45.40625 46.390625 
L 45.40625 75.984375 
L 54.390625 75.984375 
L 54.390625 0 
L 45.40625 0 
L 45.40625 8.203125 
Q 42.578125 3.328125 38.25 0.953125 
Q 33.9375 -1.421875 27.875 -1.421875 
Q 17.96875 -1.421875 11.734375 6.484375 
Q 5.515625 14.40625 5.515625 27.296875 
Q 5.515625 40.1875 11.734375 48.09375 
Q 17.96875 56 27.875 56 
Q 33.9375 56 38.25 53.625 
Q 42.578125 51.265625 45.40625 46.390625 
z
M 14.796875 27.296875 
Q 14.796875 17.390625 18.875 11.75 
Q 22.953125 6.109375 30.078125 6.109375 
Q 37.203125 6.109375 41.296875 11.75 
Q 45.40625 17.390625 45.40625 27.296875 
Q 45.40625 37.203125 41.296875 42.84375 
Q 37.203125 48.484375 30.078125 48.484375 
Q 22.953125 48.484375 18.875 42.84375 
Q 14.796875 37.203125 14.796875 27.296875 
z
" id="DejaVuSans-64"/>
     <path d="M 45.40625 27.984375 
Q 45.40625 37.75 41.375 43.109375 
Q 37.359375 48.484375 30.078125 48.484375 
Q 22.859375 48.484375 18.828125 43.109375 
Q 14.796875 37.75 14.796875 27.984375 
Q 14.796875 18.265625 18.828125 12.890625 
Q 22.859375 7.515625 30.078125 7.515625 
Q 37.359375 7.515625 41.375 12.890625 
Q 45.40625 18.265625 45.40625 27.984375 
z
M 54.390625 6.78125 
Q 54.390625 -7.171875 48.1875 -13.984375 
Q 42 -20.796875 29.203125 -20.796875 
Q 24.46875 -20.796875 20.265625 -20.09375 
Q 16.0625 -19.390625 12.109375 -17.921875 
L 12.109375 -9.1875 
Q 16.0625 -11.328125 19.921875 -12.34375 
Q 23.78125 -13.375 27.78125 -13.375 
Q 36.625 -13.375 41.015625 -8.765625 
Q 45.40625 -4.15625 45.40625 5.171875 
L 45.40625 9.625 
Q 42.625 4.78125 38.28125 2.390625 
Q 33.9375 0 27.875 0 
Q 17.828125 0 11.671875 7.65625 
Q 5.515625 15.328125 5.515625 27.984375 
Q 5.515625 40.671875 11.671875 48.328125 
Q 17.828125 56 27.875 56 
Q 33.9375 56 38.28125 53.609375 
Q 42.625 51.21875 45.40625 46.390625 
L 45.40625 54.6875 
L 54.390625 54.6875 
z
" id="DejaVuSans-67"/>
     <path d="M 54.890625 33.015625 
L 54.890625 0 
L 45.90625 0 
L 45.90625 32.71875 
Q 45.90625 40.484375 42.875 44.328125 
Q 39.84375 48.1875 33.796875 48.1875 
Q 26.515625 48.1875 22.3125 43.546875 
Q 18.109375 38.921875 18.109375 30.90625 
L 18.109375 0 
L 9.078125 0 
L 9.078125 54.6875 
L 18.109375 54.6875 
L 18.109375 46.1875 
Q 21.34375 51.125 25.703125 53.5625 
Q 30.078125 56 35.796875 56 
Q 45.21875 56 50.046875 50.171875 
Q 54.890625 44.34375 54.890625 33.015625 
z
" id="DejaVuSans-6e"/>
    </defs>
    <g transform="translate(190.198125 35.472)scale(0.12 -0.12)">
     <use xlink:href="#DejaVuSans-53"/>
     <use x="63.476562" xlink:href="#DejaVuSans-61"/>
     <use x="124.755859" xlink:href="#DejaVuSans-6d"/>
     <use x="222.167969" xlink:href="#DejaVuSans-70"/>
     <use x="285.644531" xlink:href="#DejaVuSans-6c"/>
     <use x="313.427734" xlink:href="#DejaVuSans-65"/>
     <use x="374.951172" xlink:href="#DejaVuSans-64"/>
     <use x="438.427734" xlink:href="#DejaVuSans-20"/>
     <use x="470.214844" xlink:href="#DejaVuSans-73"/>
     <use x="522.314453" xlink:href="#DejaVuSans-69"/>
     <use x="550.097656" xlink:href="#DejaVuSans-67"/>
     <use x="613.574219" xlink:href="#DejaVuSans-6e"/>
     <use x="676.953125" xlink:href="#DejaVuSans-61"/>
     <use x="738.232422" xlink:href="#DejaVuSans-6c"/>
    </g>
   </g>
  </g>
 </g>
 <defs>
  <clipPath id="pb8655ec319">
   <rect height="266.112" width="357.12" x="57.6" y="41.472"/>
  </clipPath>
 </defs>
</svg>
